<?xml version="1.0" encoding="UTF-8" standalone="no"?>
<!-- Generator: Adobe Illustrator 14.0.0, SVG Export Plug-In . SVG Version: 6.00 Build 43363)  -->

<svg
   xmlns:osb="http://www.openswatchbook.org/uri/2009/osb"
   xmlns:dc="http://purl.org/dc/elements/1.1/"
   xmlns:cc="http://creativecommons.org/ns#"
   xmlns:rdf="http://www.w3.org/1999/02/22-rdf-syntax-ns#"
   xmlns:svg="http://www.w3.org/2000/svg"
   xmlns="http://www.w3.org/2000/svg"
   xmlns:xlink="http://www.w3.org/1999/xlink"
   xmlns:sodipodi="http://sodipodi.sourceforge.net/DTD/sodipodi-0.dtd"
   xmlns:inkscape="http://www.inkscape.org/namespaces/inkscape"
   version="1.1"
   id="svg2383"
   sodipodi:version="0.32"
   inkscape:version="0.48.2 r9819"
   sodipodi:docname="fullscreen-toggle.svg"
   inkscape:output_extension="org.inkscape.output.svg.inkscape"
   x="0px"
   y="0px"
   width="18px"
   height="18px"
   viewBox="0 0 18 18"
   enable-background="new 0 0 18 18"
   xml:space="preserve"><metadata
   id="metadata3059"><rdf:RDF><cc:Work
       rdf:about=""><dc:format>image/svg+xml</dc:format><dc:type
         rdf:resource="http://purl.org/dc/dcmitype/StillImage" /><dc:title></dc:title></cc:Work></rdf:RDF></metadata>
<defs
   id="defs3048"><linearGradient
   id="linearGradient5306"
   osb:paint="solid"><stop
     style="stop-color:#0019f8;stop-opacity:1;"
     offset="0"
     id="stop5308" /></linearGradient><linearGradient
   id="linearGradient3866"
   osb:paint="solid"><stop
     style="stop-color:#0019f8;stop-opacity:1;"
     offset="0"
     id="stop3868" /></linearGradient>
	
	
		<inkscape:perspective
   sodipodi:type="inkscape:persp3d"
   inkscape:vp_x="0 : 16 : 1"
   inkscape:vp_y="0 : 1000 : 0"
   inkscape:vp_z="32 : 16 : 1"
   id="perspective2391"
   inkscape:persp3d-origin="16 : 10.666667 : 1">
		</inkscape:perspective>
<linearGradient
   inkscape:collect="always"
   xlink:href="#SVGID_1_"
   id="linearGradient3007"
   gradientUnits="userSpaceOnUse"
   gradientTransform="matrix(-0.55726869,0.46938745,-0.3945266,-0.46839199,13.122501,8.395082)"
   x1="9.0161"
   y1="18.0352"
   x2="9.0161"
   y2="4.882813e-004" /></defs>
<sodipodi:namedview
   showgrid="true"
   pagecolor="#ffffff"
   bordercolor="#666666"
   borderopacity="1.0"
   inkscape:zoom="31.672167"
   inkscape:cx="8.190622"
   inkscape:cy="8.9644282"
   id="base"
   inkscape:pageopacity="0.0"
   inkscape:pageshadow="2"
   inkscape:current-layer="svg2383"
   inkscape:grid-bbox="true"
   inkscape:document-units="px"
   inkscape:window-width="1680"
   inkscape:window-height="990"
   inkscape:window-x="-4"
   inkscape:window-y="-4"
   inkscape:window-maximized="1">
	</sodipodi:namedview>
<linearGradient
   id="SVGID_1_"
   gradientUnits="userSpaceOnUse"
   x1="9.0161"
   y1="18.0352"
   x2="9.0161"
   y2="4.882813e-004"
   gradientTransform="matrix(0.31903778,0,0,0.31903778,12.279366,4.4524453e-5)">
	<stop
   offset="0"
   style="stop-color:#08ff00;stop-opacity:1;"
   id="stop3053" />
	<stop
   offset="1"
   style="stop-color:#66ff6f;stop-opacity:1;"
   id="stop3055" />
</linearGradient>
<path
   style="fill:#325ee2;fill-opacity:1;fill-rule:evenodd"
   d="m 15.672895,5.0265188 2.397766,-2.3968281 c 0.105919,-0.1059222 0.105919,-0.2760522 0,-0.3810365 l -2.288094,-2.28856298 c -0.105453,-0.104983 -0.276521,-0.104983 -0.381506,0 l -2.397297,2.39729668 -0.952826,-0.9532944 -0.0032,-0.0028 c -0.104973,-0.1026412 -0.274177,-0.1017032 -0.379162,0.0028 -0.05718,0.057179 -0.08296,0.1331054 -0.07779,0.2076249 l 0.19113,4.3596587 c -0.0014,0.070771 0.02531,0.1438846 0.07921,0.1977827 0.05484,0.054836 0.127483,0.081551 0.199659,0.078738 l 4.358249,0.1926275 c 0.07499,0.00422 0.150913,-0.022028 0.207625,-0.078738 0.105453,-0.1054526 0.105453,-0.2765209 0,-0.3815052 L 15.672891,5.0265189 z"
   id="path3005"
   inkscape:connector-curvature="0" />
<path
   style="fill:#325ee2;fill-opacity:1;fill-rule:evenodd"
   d="M 2.4602006,5.0387656 0.0624358,2.6419381 c -0.1059171,-0.1059223 -0.1059171,-0.2760525 0,-0.3810368 l 2.2880938,-2.28856368 c 0.1054487,-0.104983 0.2765204,-0.104983 0.3815058,0 l 2.3972966,2.39729668 0.9528258,-0.953294 0.00324,-0.00284 c 0.1049792,-0.1026377 0.2741792,-0.1017006 0.3791645,0.00284 0.057171,0.057181 0.082956,0.1331049 0.077799,0.2076252 l -0.191181,4.3596587 c 0.00141,0.070768 -0.025311,0.1438847 -0.07921,0.1977826 -0.05484,0.054831 -0.1274837,0.081548 -0.1996578,0.07874 L 1.7140627,6.4527755 c -0.074988,0.00425 -0.1509137,-0.022026 -0.2076251,-0.07874 -0.1054475,-0.105454 -0.1054475,-0.2765217 0,-0.3815059 l 0.953763,-0.9537636 z"
   id="path3005-1"
   inkscape:connector-curvature="0" /><path
   style="fill:#325ee2;fill-opacity:1;fill-rule:evenodd"
   d="m 15.672896,13.046622 2.397764,2.396828 c 0.10592,0.105919 0.10592,0.276052 0,0.381037 l -2.288093,2.288562 c -0.105452,0.104985 -0.276521,0.104985 -0.381506,0 l -2.397296,-2.397295 -0.952826,0.953293 -0.0032,0.0029 c -0.104972,0.102638 -0.274176,0.101704 -0.379162,-0.0029 -0.05718,-0.05718 -0.08296,-0.133104 -0.07779,-0.207624 l 0.191181,-4.359659 c -0.0014,-0.07077 0.02531,-0.143885 0.07921,-0.197782 0.05484,-0.05483 0.127482,-0.08155 0.199658,-0.07874 l 4.358253,-0.192627 c 0.07499,-0.0043 0.150914,0.02203 0.207626,0.07874 0.105439,0.105453 0.105439,0.276521 0,0.381506 l -0.953764,0.953762 z"
   id="path3005-7"
   inkscape:connector-curvature="0" /><path
   style="fill:#325ee2;fill-opacity:1;fill-rule:evenodd"
   d="m 2.4578902,13.04662 -2.39776475,2.396827 c -0.1059171,0.10592 -0.1059171,0.276052 0,0.381036 l 2.28809375,2.288565 c 0.1054487,0.104986 0.2765204,0.104986 0.3815057,0 l 2.3972967,-2.397297 0.9528257,0.953294 0.00324,0.0029 c 0.1049765,0.102638 0.2741771,0.101703 0.3791625,-0.0029 0.057171,-0.05718 0.082956,-0.133105 0.077799,-0.207625 l -0.191181,-4.35966 c 0.00141,-0.07077 -0.025311,-0.143884 -0.07921,-0.197782 -0.05484,-0.05483 -0.1274838,-0.08154 -0.1996579,-0.07874 L 1.71175,11.632611 c -0.074988,-0.0043 -0.1509138,0.02203 -0.2076252,0.07874 -0.1054474,0.105452 -0.1054474,0.276521 0,0.381505 l 0.953762,0.953764 z"
   id="path3005-1-4"
   inkscape:connector-curvature="0" /><rect
   style="color:#000000;fill:#325ee2;fill-opacity:1;fill-rule:nonzero;stroke:none;stroke-width:0.506809;marker:none;visibility:visible;display:inline;overflow:visible;enable-background:accumulate"
   id="rect3011"
   width="3.4947846"
   height="2.6069939"
   x="7.3180141"
   y="7.7330704"
   ry="1.0062082" /></svg>