<?xml version="1.0" encoding="utf-8"?>
<!-- Generator: Adobe Illustrator 11 Build 196, SVG Export Plug-In . SVG Version: 6.0.0 Build 78)  -->
<!DOCTYPE svg PUBLIC "-//W3C//DTD SVG 1.0//EN"    "http://www.w3.org/TR/2001/REC-SVG-20010904/DTD/svg10.dtd" [
	<!ENTITY ns_flows "http://ns.adobe.com/Flows/1.0/">
	<!ENTITY ns_svg "http://www.w3.org/2000/svg">
	<!ENTITY ns_xlink "http://www.w3.org/1999/xlink">
]>
<svg  xmlns="&ns_svg;" xmlns:xlink="&ns_xlink;" xmlns:a="http://ns.adobe.com/AdobeSVGViewerExtensions/3.0/"
	 width="16" height="16" viewBox="0 0 16 16" overflow="visible" enable-background="new 0 0 16 16" xml:space="preserve">
		<g id="Layer_1">
			<circle fill="#6495ED" cx="8" cy="8" r="8"/> 
			<path fill="#FFFFFF" d="M5.434,8.039L5.227,7.604l1.126-0.831c0.575-0.406,0.962-0.665,1.158-0.775
				C7.828,5.823,8.111,5.697,8.357,5.62c0.153-0.044,0.287-0.066,0.404-0.066c0.131,0,0.246,0.055,0.349,0.164
				c0.101,0.11,0.151,0.26,0.151,0.451c0,0.208-0.022,0.424-0.065,0.648C9.124,7.167,8.93,7.931,8.607,9.105
				c-0.322,1.177-0.521,1.946-0.601,2.31c-0.078,0.364-0.117,0.603-0.117,0.718c0,0.088,0.022,0.156,0.07,0.205
				c0.045,0.049,0.096,0.074,0.151,0.074c0.065,0,0.168-0.038,0.312-0.115c0.322-0.169,0.683-0.391,1.083-0.664l0.222,0.435
				c-0.433,0.308-0.921,0.639-1.467,0.992c-0.545,0.354-0.944,0.578-1.201,0.673c-0.164,0.06-0.321,0.09-0.475,0.09
				c-0.186,0-0.338-0.069-0.458-0.209s-0.181-0.354-0.181-0.646c0-0.23,0.024-0.469,0.074-0.716c0.059-0.328,0.2-0.915,0.424-1.76
				c0.46-1.743,0.689-2.769,0.689-3.075c0-0.071-0.019-0.126-0.054-0.164C7.043,7.214,6.998,7.194,6.944,7.194
				C6.724,7.194,6.219,7.477,5.434,8.039z"/>
			<path fill="#FFFFFF" d="M7.851,3.457c0-0.359,0.111-0.651,0.335-0.878C8.406,2.354,8.68,2.24,9.003,2.24
				c0.275,0,0.497,0.083,0.665,0.249c0.166,0.166,0.25,0.386,0.25,0.657c0,0.388-0.106,0.699-0.322,0.937
				C9.383,4.32,9.11,4.438,8.782,4.438c-0.292,0-0.52-0.084-0.684-0.254C7.933,4.017,7.851,3.773,7.851,3.457z"/>
		</g>
	</svg>
