<?xml version="1.0" encoding="utf-8"?>
<!-- Generator: Adobe Illustrator 11 Build 196, SVG Export Plug-In . SVG Version: 6.0.0 Build 78)  -->
<!DOCTYPE svg PUBLIC "-//W3C//DTD SVG 1.0//EN"    "http://www.w3.org/TR/2001/REC-SVG-20010904/DTD/svg10.dtd" [
	<!ENTITY ns_flows "http://ns.adobe.com/Flows/1.0/">
	<!ENTITY ns_svg "http://www.w3.org/2000/svg">
	<!ENTITY ns_xlink "http://www.w3.org/1999/xlink">
]>
<svg  xmlns="&ns_svg;" xmlns:xlink="&ns_xlink;" xmlns:a="http://ns.adobe.com/AdobeSVGViewerExtensions/3.0/"
	 width="22.047" height="22.046" viewBox="0 0 22.047 22.046" overflow="visible" enable-background="new 0 0 22.047 22.046"
	 xml:space="preserve">
		<g id="Layer_1">
			<path fill="#FFFFFF" stroke="#000000" stroke-width="1.5" d="M10.26,11.787c1.106,1.105,1.108,2.902,0,4.01l-3.373,3.373
				c-1.108,1.105-2.901,1.105-4.01,0l0,0c-1.106-1.109-1.106-2.902,0-4.01l3.373-3.373C7.358,10.68,9.153,10.68,10.26,11.787
				L10.26,11.787z"/>
			<path fill="#FFFFFF" stroke="#000000" stroke-width="1.5" d="M19.17,2.877c1.107,1.107,1.107,2.902,0.001,4.01l-3.375,3.373
				c-1.106,1.107-2.901,1.107-4.008,0l0,0c-1.108-1.107-1.108-2.902,0-4.01l3.372-3.373C16.268,1.77,18.062,1.77,19.17,2.877
				L19.17,2.877z"/>
			<line fill="none" stroke="#FFFFFF" stroke-width="2" stroke-linecap="round" x1="8.383" y1="13.664" x2="13.665" y2="8.382"/>
			<line fill="none" stroke="#FFFFFF" stroke-width="2" stroke-linecap="round" x1="1" y1="21.046" x2="6.282" y2="15.763"/>
			<line fill="none" stroke="#FFFFFF" stroke-width="2" stroke-linecap="round" x1="15.766" y1="6.282" x2="21.047" y2="1"/>
			<line fill="none" stroke="#000000" stroke-width="1.5" stroke-linecap="round" x1="8.383" y1="13.664" x2="13.665" y2="8.382"/>
			<line fill="none" stroke="#000000" stroke-width="1.5" stroke-linecap="round" x1="1" y1="21.046" x2="6.282" y2="15.763"/>
			<line fill="none" stroke="#000000" stroke-width="1.5" stroke-linecap="round" x1="15.766" y1="6.282" x2="21.047" y2="1"/>
		</g>
	</svg>
