<?xml version="1.0" encoding="UTF-8" standalone="no"?>
<!-- Created with Inkscape (http://www.inkscape.org/) -->
<svg
   xmlns:dc="http://purl.org/dc/elements/1.1/"
   xmlns:cc="http://creativecommons.org/ns#"
   xmlns:rdf="http://www.w3.org/1999/02/22-rdf-syntax-ns#"
   xmlns:svg="http://www.w3.org/2000/svg"
   xmlns="http://www.w3.org/2000/svg"
   xmlns:sodipodi="http://sodipodi.sourceforge.net/DTD/sodipodi-0.dtd"
   xmlns:inkscape="http://www.inkscape.org/namespaces/inkscape"
   width="50"
   height="50"
   id="svg2"
   sodipodi:version="0.32"
   inkscape:version="0.46"
   version="1.0"
   sodipodi:docname="restriction.svg"
   inkscape:output_extension="org.inkscape.output.svg.inkscape">
  <defs
     id="defs4">
    <inkscape:perspective
       sodipodi:type="inkscape:persp3d"
       inkscape:vp_x="0 : 526.18109 : 1"
       inkscape:vp_y="0 : 1000 : 0"
       inkscape:vp_z="744.09448 : 526.18109 : 1"
       inkscape:persp3d-origin="372.04724 : 350.78739 : 1"
       id="perspective10" />
  </defs>
  <sodipodi:namedview
     id="base"
     pagecolor="#ffffff"
     bordercolor="#666666"
     borderopacity="1.0"
     gridtolerance="10000"
     guidetolerance="10"
     objecttolerance="10"
     inkscape:pageopacity="0.0"
     inkscape:pageshadow="2"
     inkscape:zoom="2.47"
     inkscape:cx="50"
     inkscape:cy="21.862348"
     inkscape:document-units="px"
     inkscape:current-layer="layer1"
     showgrid="false"
     inkscape:window-width="1003"
     inkscape:window-height="723"
     inkscape:window-x="-5"
     inkscape:window-y="24" />
  <metadata
     id="metadata7">
    <rdf:RDF>
      <cc:Work
         rdf:about="">
        <dc:format>image/svg+xml</dc:format>
        <dc:type
           rdf:resource="http://purl.org/dc/dcmitype/StillImage" />
      </cc:Work>
    </rdf:RDF>
  </metadata>
  <g
     inkscape:label="Layer 1"
     inkscape:groupmode="layer"
     id="layer1">
    <path
       sodipodi:type="arc"
       style="fill:#ffffff;fill-opacity:0.82352942;stroke-width:1.29100001000000009;stroke-miterlimit:4;stroke-dasharray:none"
       id="path2385"
       sodipodi:cx="53.846153"
       sodipodi:cy="56.680161"
       sodipodi:rx="42.51012"
       sodipodi:ry="42.51012"
       d="M 96.356274,56.680161 A 42.51012,42.51012 0 1 1 11.336033,56.680161 A 42.51012,42.51012 0 1 1 96.356274,56.680161 z"
       transform="matrix(0.5880952,0,0,0.5880952,-6.666667,-8.333333)" />
    <path
       style="fill:#ff0000;fill-opacity:1;stroke-width:1.29100001;stroke-miterlimit:4;stroke-dasharray:none"
       d="M 25,0 C 11.2,0 2.4725014e-15,11.2 0,25 C -1.1564823e-18,38.8 11.2,50 25,50 C 38.8,50 50,38.8 50,25 C 50,11.2 38.8,0 25,0 z M 25,5 C 36.04,5 45,13.96 45,25 C 45,36.04 36.04,45 25,45 C 13.96,45 5,36.04 5,25 C 5,13.96 13.96,5 25,5 z"
       id="path3157" />
  </g>
</svg>
