<?xml version="1.0" encoding="UTF-8" standalone="no"?>
<!-- Created with Inkscape (http://www.inkscape.org/) -->
<svg
   xmlns:dc="http://purl.org/dc/elements/1.1/"
   xmlns:cc="http://creativecommons.org/ns#"
   xmlns:rdf="http://www.w3.org/1999/02/22-rdf-syntax-ns#"
   xmlns:svg="http://www.w3.org/2000/svg"
   xmlns="http://www.w3.org/2000/svg"
   xmlns:sodipodi="http://sodipodi.sourceforge.net/DTD/sodipodi-0.dtd"
   xmlns:inkscape="http://www.inkscape.org/namespaces/inkscape"
   width="24"
   height="24"
   id="svg2383"
   sodipodi:version="0.32"
   inkscape:version="0.46"
   sodipodi:docname="save.svg"
   inkscape:output_extension="org.inkscape.output.svg.inkscape"
   version="1.0">
  <defs
     id="defs2385">
    <inkscape:perspective
       sodipodi:type="inkscape:persp3d"
       inkscape:vp_x="0 : 16 : 1"
       inkscape:vp_y="0 : 1000 : 0"
       inkscape:vp_z="32 : 16 : 1"
       inkscape:persp3d-origin="16 : 10.666667 : 1"
       id="perspective2391" />
  </defs>
  <sodipodi:namedview
     id="base"
     pagecolor="#ffffff"
     bordercolor="#666666"
     borderopacity="1.0"
     inkscape:pageopacity="0.0"
     inkscape:pageshadow="2"
     inkscape:zoom="11.197802"
     inkscape:cx="17.258093"
     inkscape:cy="3.7405397"
     inkscape:current-layer="layer1"
     showgrid="true"
     inkscape:grid-bbox="true"
     inkscape:document-units="px"
     inkscape:window-width="875"
     inkscape:window-height="723"
     inkscape:window-x="123"
     inkscape:window-y="47" />
  <metadata
     id="metadata2388">
    <rdf:RDF>
      <cc:Work
         rdf:about="">
        <dc:format>image/svg+xml</dc:format>
        <dc:type
           rdf:resource="http://purl.org/dc/dcmitype/StillImage" />
      </cc:Work>
    </rdf:RDF>
  </metadata>
  <g
     id="layer1"
     inkscape:label="Layer 1"
     inkscape:groupmode="layer">
    <g
       id="g2384"
       transform="scale(0.75,0.75)">
      <path
         id="rect3163"
         d="M 1.1875,0 C 0.52269997,0 -2.6888214e-17,0.52269997 0,1.1875 L 0,30.8125 C 0,31.4773 0.52269997,32 1.1875,32 L 30.8125,32 C 31.4773,32 32,31.477301 32,30.8125 L 32,28.0625 L 30.375,28.0625 L 30.375,26.09375 L 32,26.09375 L 32,1.1875 C 32,0.52269997 31.477301,-4.3657207e-17 30.8125,0 L 1.1875,0 z M 16,10.71875 C 18.908428,10.71875 21.28125,13.091572 21.28125,16 C 21.28125,18.908428 18.908428,21.28125 16,21.28125 C 13.091572,21.281251 10.71875,18.908428 10.71875,16 C 10.71875,13.091572 13.091572,10.71875 16,10.71875 z"
         style="fill:#292929;fill-opacity:1;stroke:none;stroke-width:1.89999998;stroke-miterlimit:4;stroke-dasharray:none;stroke-opacity:1" />
      <path
         transform="matrix(0.9076923,0,0,0.9076923,17.134838,0.9772032)"
         d="M 4.5544651,16.550539 A 5.8047104,5.8047104 0 1 1 -7.0549557,16.550539 A 5.8047104,5.8047104 0 1 1 4.5544651,16.550539 z"
         sodipodi:ry="5.8047104"
         sodipodi:rx="5.8047104"
         sodipodi:cy="16.550539"
         sodipodi:cx="-1.2502453"
         id="path3170"
         style="fill:none;fill-opacity:1;stroke:#816868;stroke-width:1.89999998;stroke-miterlimit:4;stroke-dasharray:none;stroke-opacity:1"
         sodipodi:type="arc" />
      <rect
         rx="0.89999998"
         y="1.9048082"
         x="15.374877"
         height="6.3405299"
         width="1.2502453"
         id="rect3175"
         style="fill:none;fill-opacity:1;stroke:#816868;stroke-width:1.89999998;stroke-miterlimit:4;stroke-dasharray:none;stroke-opacity:1" />
      <path
         transform="matrix(2.6000001,0,0,2.6000001,-10.573504,-16.336016)"
         d="M 7.054956,10.433268 A 0.22325809,0.22325809 0 1 1 6.6084398,10.433268 A 0.22325809,0.22325809 0 1 1 7.054956,10.433268 z"
         sodipodi:ry="0.22325809"
         sodipodi:rx="0.22325809"
         sodipodi:cy="10.433268"
         sodipodi:cx="6.8316979"
         id="path3177"
         style="fill:#523d3d;fill-opacity:1;stroke:none;stroke-width:1.89999998;stroke-miterlimit:4;stroke-dasharray:none;stroke-opacity:1"
         sodipodi:type="arc" />
      <rect
         rx="0.79342103"
         y="24.230619"
         x="3.750736"
         height="5.9833174"
         width="13.068825"
         id="rect3179"
         style="fill:#eaeded;fill-opacity:1;stroke:none;stroke-width:1.89999998;stroke-miterlimit:4;stroke-dasharray:none;stroke-opacity:1" />
    </g>
  </g>
</svg>
