<?xml version="1.0" encoding="utf-8"?>
<!-- Generator: Adobe Illustrator 14.0.0, SVG Export Plug-In . SVG Version: 6.00 Build 43363)  -->
<!DOCTYPE svg PUBLIC "-//W3C//DTD SVG 1.1//EN" "http://www.w3.org/Graphics/SVG/1.1/DTD/svg11.dtd">
<svg version="1.1"
	 id="svg2383" sodipodi:version="0.32" inkscape:version="0.46" sodipodi:docname="save.svg" xmlns:dc="http://purl.org/dc/elements/1.1/" xmlns:cc="http://creativecommons.org/ns#" xmlns:rdf="http://www.w3.org/1999/02/22-rdf-syntax-ns#" xmlns:svg="http://www.w3.org/2000/svg" xmlns:sodipodi="http://sodipodi.sourceforge.net/DTD/sodipodi-0.dtd" xmlns:inkscape="http://www.inkscape.org/namespaces/inkscape" inkscape:output_extension="org.inkscape.output.svg.inkscape"
	 xmlns="http://www.w3.org/2000/svg" xmlns:xlink="http://www.w3.org/1999/xlink" x="0px" y="0px" width="18px" height="18px"
	 viewBox="3 3 18 18" enable-background="new 3 3 18 18" xml:space="preserve">
<defs>
	
	
		<inkscape:perspective  id="perspective2391" inkscape:persp3d-origin="16 : 10.666667 : 1" sodipodi:type="inkscape:persp3d" inkscape:vp_x="0 : 16 : 1" inkscape:vp_y="0 : 1000 : 0" inkscape:vp_z="32 : 16 : 1">
		</inkscape:perspective>
</defs>
<sodipodi:namedview  id="base" showgrid="true" pagecolor="#ffffff" bordercolor="#666666" borderopacity="1.0" inkscape:zoom="11.197802" inkscape:cx="17.258093" inkscape:cy="3.7405397" inkscape:pageopacity="0.0" inkscape:pageshadow="2" inkscape:current-layer="layer1" inkscape:grid-bbox="true" inkscape:document-units="px" inkscape:window-width="875" inkscape:window-height="723" inkscape:window-x="123" inkscape:window-y="47">
	</sodipodi:namedview>
<g id="layer1" inkscape:label="Layer 1" inkscape:groupmode="layer">
	<g id="g2384" transform="scale(0.75,0.75)">
		<path id="rect3163" fill="#009ADE" d="M4.891,4C4.392,4,4,4.392,4,4.891v22.218C4,27.607,4.392,28,4.891,28h22.218
			C27.607,28,28,27.607,28,27.109v-2.063h-1.219V23.57H28V4.891C28,4.392,27.607,4,27.109,4H4.891z M16,12.039
			c2.182,0,3.961,1.78,3.961,3.961c0,2.182-1.779,3.961-3.961,3.961c-2.181,0-3.961-1.779-3.961-3.961
			C12.039,13.819,13.819,12.039,16,12.039z"/>
		
			<path id="path3170" sodipodi:ry="5.8047104" sodipodi:rx="5.8047104" sodipodi:cy="16.550539" sodipodi:cx="-1.2502453" sodipodi:type="arc" fill="none" stroke="#816868" stroke-width="1.425" d="
			M19.951,16c0,2.182-1.768,3.951-3.951,3.951c-2.183,0-3.952-1.768-3.952-3.951s1.77-3.952,3.952-3.952S19.951,13.818,19.951,16z"
			/>
		<path id="rect3175" fill="none" stroke="#816868" stroke-width="1.425" d="M16,5.428L16,5.428c0.259,0,0.469,0.303,0.469,0.675
			v3.406c0,0.372-0.21,0.675-0.469,0.675l0,0c-0.259,0-0.469-0.303-0.469-0.675V6.103C15.531,5.731,15.741,5.428,16,5.428z"/>
		
			<path id="path3177" sodipodi:ry="0.22325809" sodipodi:rx="0.22325809" sodipodi:cy="10.433268" sodipodi:cx="6.8316979" sodipodi:type="arc" fill="#523D3D" d="
			M9.827,12.092c0,0.242-0.195,0.436-0.435,0.436c-0.241,0-0.436-0.195-0.436-0.435c0-0.001,0-0.001,0-0.001
			c-0.001-0.24,0.195-0.435,0.436-0.435C9.631,11.657,9.827,11.852,9.827,12.092L9.827,12.092z"/>
		<path id="rect3179" fill="#EAEDED" d="M7.408,22.173h8.611c0.329,0,0.596,0.267,0.596,0.595v3.297
			c0,0.328-0.267,0.595-0.596,0.595H7.408c-0.329,0-0.595-0.267-0.595-0.595v-3.297C6.813,22.44,7.079,22.173,7.408,22.173z"/>
	</g>
</g>
</svg>
